Coordinates
version=1
nRows=17
nColumns=38
inDegrees=yes

Units are S.I. units (second, meters, Newtons, ...)
Angles are in degrees.

endheader
time	pelvis_tilt	pelvis_list	pelvis_rotation	pelvis_tx	pelvis_ty	pelvis_tz	hip_flexion_r	hip_adduction_r	hip_rotation_r	knee_angle_r	ankle_angle_r	subtalar_angle_r	mtp_angle_r	hip_flexion_l	hip_adduction_l	hip_rotation_l	knee_angle_l	ankle_angle_l	subtalar_angle_l	mtp_angle_l	lumbar_extension	lumbar_bending	lumbar_rotation	arm_flex_r	arm_add_r	arm_rot_r	elbow_flex_r	pro_sup_r	wrist_flex_r	wrist_dev_r	arm_flex_l	arm_add_l	arm_rot_l	elbow_flex_l	pro_sup_l	wrist_flex_l	wrist_dev_l
      0.76000000	     -0.82607386	      0.54013229	     -3.57229320	     -0.15751840	      0.97137440	     -0.24207685	     -5.20252782	     -4.27377476	      5.12769557	      4.18025832	      5.90267007	     -8.73866138	      0.00000000	     -6.56395727	     -2.63046682	     -2.64244667	      4.56665005	      5.44087710	    -14.89538412	      0.00000000	      2.21014955	     -0.32035790	     -2.30343527	     -6.62453765	     -2.35941728	      2.51347529	     20.13145575	     44.99998538	      0.00000000	      0.00000000	     -9.57510481	     -6.67621944	      4.86361530	     22.22635667	     44.99998538	      0.00000000	      0.00000000
      0.77000000	     -0.81731768	      0.56816338	     -3.58355255	     -0.15755674	      0.97137782	     -0.24210801	     -5.29075548	     -4.31171350	      4.99292993	      4.34594643	      5.86396630	     -8.55633555	      0.00000000	     -6.55861247	     -2.59282876	     -2.76326760	      4.54108232	      5.50280939	    -14.70705872	      0.00000000	      2.20161739	     -0.34816030	     -2.29459259	     -6.17693744	     -2.71766946	      7.56449792	     18.25066238	     44.99999254	      0.00000000	      0.00000000	     -8.97831276	     -7.08610368	     10.36615485	     20.02797740	     44.99999254	      0.00000000	      0.00000000
      0.78000000	     -0.72582670	      0.56606159	     -3.56681889	     -0.15754767	      0.97148502	     -0.24213164	     -5.38441728	     -4.31336716	      4.75545423	      4.32342351	      6.01382063	     -8.10907713	      0.00000000	     -6.68711385	     -2.59439833	     -2.75228734	      4.59455972	      5.54494581	    -14.63224030	      0.00000000	      2.09670881	     -0.35998315	     -2.28760975	     -6.63910653	     -2.79584933	      6.72334277	     19.70333413	     44.99999351	      0.00000000	      0.00000000	     -9.43711144	     -7.20242038	      9.39526016	     21.52716279	     44.99999351	      0.00000000	      0.00000000
      0.79000000	     -0.79575706	      0.55045297	     -3.55761888	     -0.15764050	      0.97138665	     -0.24216769	     -5.21492346	     -4.28820419	      5.13578758	      4.15293800	      5.92177596	     -8.78631583	      0.00000000	     -6.59312748	     -2.61423732	     -2.60575002	      4.57750820	      5.46557663	    -14.91925194	      0.00000000	      2.18926852	     -0.33496601	     -2.31849067	     -6.41740191	     -2.61266029	      5.78343875	     18.99341836	     44.99999433	      0.00000000	      0.00000000	     -9.28367633	     -6.99520776	      8.44656017	     20.95072487	     44.99999433	      0.00000000	      0.00000000
      0.80000000	     -0.79966146	      0.55750928	     -3.54516088	     -0.15767872	      0.97138614	     -0.24219834	     -5.31898086	     -4.30115166	      5.05820477	      4.36951044	      5.78857140	     -8.75009586	      0.00000000	     -6.58792920	     -2.60943892	     -2.57266295	      4.58566271	      5.39849639	    -14.97372547	      0.00000000	      2.20751592	     -0.35177358	     -2.32896145	     -6.52685297	     -2.53218624	      4.64992499	     19.46864224	     44.99999534	      0.00000000	      0.00000000	     -9.40630929	     -6.91327188	      7.21490912	     21.52479755	     44.99999534	      0.00000000	      0.00000000
      0.81000000	     -0.80150075	      0.56236277	     -3.53638739	     -0.15772055	      0.97139489	     -0.24224002	     -5.30883914	     -4.30630616	      4.98774254	      4.35512896	      5.82439939	     -8.65476677	      0.00000000	     -6.57937637	     -2.60210020	     -2.60490541	      4.58106279	      5.40873824	    -14.91065803	      0.00000000	      2.22212309	     -0.35920297	     -2.33488580	     -6.54842765	     -2.47073639	      4.14101958	     19.56001754	     44.99999605	      0.00000000	      0.00000000	     -9.42936980	     -6.85930729	      6.61858148	     21.63614752	     44.99999605	      0.00000000	      0.00000000
      0.82000000	     -1.05725552	      0.56863254	     -3.54762655	     -0.15792178	      0.97107797	     -0.24224014	     -4.84251440	     -4.28757495	      4.89256443	      4.01777479	      6.06478397	     -8.31488305	      0.00000000	     -6.18649137	     -2.62014796	     -2.93787330	      4.35951475	      5.81316380	    -14.12278644	      0.00000000	      2.52789729	     -0.35124950	     -2.30485578	     -7.22583212	     -2.60703393	      3.90948118	     21.17860061	     44.99999644	      0.00000000	      0.00000000	    -10.04803635	     -7.00641144	      6.26652509	     23.22167752	     44.99999644	      0.00000000	      0.00000000
      0.83000000	     -0.77327176	      0.54801536	     -3.53052098	     -0.15782141	      0.97146662	     -0.24222912	     -5.31984813	     -4.28674362	      4.92463505	      4.32343323	      5.84760229	     -8.53664358	      0.00000000	     -6.59077789	     -2.61518300	     -2.67325547	      4.55647978	      5.47916271	    -14.81162676	      0.00000000	      2.20127459	     -0.36642096	     -2.32804950	     -6.60779865	     -2.47851721	      3.74837721	     19.75186270	     44.99999715	      0.00000000	      0.00000000	     -9.48826219	     -6.86332927	      6.07115223	     21.77610428	     44.99999715	      0.00000000	      0.00000000
      0.84000000	     -0.77038088	      0.56239036	     -3.52062907	     -0.15785517	      0.97147324	     -0.24230708	     -5.32348709	     -4.30507422	      4.86934114	      4.33231407	      5.84299231	     -8.48056777	      0.00000000	     -6.59530041	     -2.59817664	     -2.67911450	      4.56335581	      5.51972868	    -14.73714540	      0.00000000	      2.21247725	     -0.37152709	     -2.34462731	     -6.83704445	     -2.41521847	      2.95804644	     20.38386452	     44.99999768	      0.00000000	      0.00000000	     -9.74697265	     -6.81620529	      5.26361339	     22.56839769	     44.99999768	      0.00000000	      0.00000000
      0.85000000	     -0.94762415	      0.57136431	     -3.52931306	     -0.15800783	      0.97123241	     -0.24231644	     -5.07808036	     -4.29841838	      4.69021011	      4.24856589	      5.96953165	     -8.17520530	      0.00000000	     -6.35051234	     -2.59806922	     -2.87586490	      4.47923902	      5.60490435	    -14.38808041	      0.00000000	      2.42361278	     -0.36348415	     -2.31862349	     -7.23778603	     -2.48522100	      2.83030776	     21.37624067	     44.99999785	      0.00000000	      0.00000000	    -10.12948617	     -6.88659165	      5.06068693	     23.56377189	     44.99999785	      0.00000000	      0.00000000
      0.86000000	     -0.76956695	      0.56551065	     -3.51793343	     -0.15794451	      0.97144710	     -0.24233889	     -5.34104736	     -4.31483657	      5.03795035	      4.37499141	      5.77318827	     -8.74924331	      0.00000000	     -6.59954297	     -2.59566135	     -2.54263382	      4.58578946	      5.37969734	    -14.97109983	      0.00000000	      2.22813726	     -0.37426680	     -2.33335874	     -6.79485960	     -2.33965573	      2.39987719	     20.32601697	     44.99999812	      0.00000000	      0.00000000	     -9.71334421	     -6.73860593	      4.61764660	     22.61636177	     44.99999812	      0.00000000	      0.00000000
      0.87000000	     -0.67577248	      0.57326137	     -3.52773049	     -0.15795988	      0.97159189	     -0.24233170	     -5.44364255	     -4.32536473	      4.80146338	      4.38339639	      5.86426994	     -8.38402193	      0.00000000	     -6.70887562	     -2.57314246	     -2.79059463	      4.60357776	      5.48102498	    -14.62251065	      0.00000000	      2.10953127	     -0.39463086	     -2.32329550	     -7.20393360	     -2.40349167	      2.03614961	     21.56809642	     44.99999842	      0.00000000	      0.00000000	    -10.14982596	     -6.82017927	      4.16791500	     23.85595127	     44.99999842	      0.00000000	      0.00000000
      0.88000000	     -0.78796808	      0.56716449	     -3.52005093	     -0.15803883	      0.97143208	     -0.24235270	     -5.28692269	     -4.31297340	      4.75616915	      4.31647077	      5.94157861	     -8.23908310	      0.00000000	     -6.54893096	     -2.59425320	     -2.81137281	      4.53191313	      5.57519239	    -14.46354033	      0.00000000	      2.25401127	     -0.37944302	     -2.32035950	     -7.49146413	     -2.44261521	      1.96287280	     22.20937420	     44.99999851	      0.00000000	      0.00000000	    -10.39705088	     -6.86863076	      4.04311297	     24.52256035	     44.99999851	      0.00000000	      0.00000000
      0.89000000	     -0.77059495	      0.56304584	     -3.52899050	     -0.15811030	      0.97146111	     -0.24237378	     -5.23797890	     -4.31357598	      5.26987385	      4.20592673	      5.77936162	     -9.09669646	      0.00000000	     -6.58317389	     -2.59219769	     -2.58269620	      4.57777818	      5.39300798	    -14.96292406	      0.00000000	      2.23780498	     -0.36693352	     -2.33258378	     -6.95135704	     -2.20394889	      0.83250055	     20.92576946	     44.99999889	      0.00000000	      0.00000000	     -9.96954865	     -6.59259814	      2.78947054	     23.42556486	     44.99999889	      0.00000000	      0.00000000
      0.90000000	     -0.77596629	      0.57968771	     -3.53301951	     -0.15815783	      0.97149579	     -0.24240680	     -5.29004631	     -4.33367893	      4.90170738	      4.32117094	      5.84804680	     -8.49486324	      0.00000000	     -6.55453068	     -2.57824125	     -2.59819017	      4.53518463	      5.42450359	    -14.86157794	      0.00000000	      2.24943231	     -0.37292633	     -2.31569557	     -6.31088935	     -2.66964898	      7.40458394	     18.25786495	     44.99999958	      0.00000000	      0.00000000	     -9.07209960	     -7.12282016	      9.97270166	     20.16838943	     44.99999958	      0.00000000	      0.00000000
      0.91000000	     -0.73763202	      0.56644125	     -3.53161238	     -0.15819835	      0.97156106	     -0.24242183	     -5.33517974	     -4.31783506	      4.72588234	      4.32983459	      5.92812509	     -8.19777899	      0.00000000	     -6.59423000	     -2.58357379	     -2.73198873	      4.53895693	      5.45457043	    -14.69216386	      0.00000000	      2.19599881	     -0.35809880	     -2.34398918	     -6.58581786	     -2.73890314	      7.02861672	     19.22567354	     44.99999963	      0.00000000	      0.00000000	     -9.39493007	     -7.20767103	      9.53388947	     21.16527853	     44.99999963	      0.00000000	      0.00000000
      0.92000000	     -0.80758346	      0.56313219	     -3.53381752	     -0.15829296	      0.97145823	     -0.24243269	     -5.22182032	     -4.30951807	      4.68158586	      4.26695709	      5.98013835	     -8.08591611	      0.00000000	     -6.48689089	     -2.59332223	     -2.79684602	      4.48434620	      5.56755346	    -14.52689731	      0.00000000	      2.26890344	     -0.34814538	     -2.30877964	     -6.86271214	     -2.80128896	      6.78827970	     19.95244257	     44.99999967	      0.00000000	      0.00000000	     -9.66181062	     -7.27761638	      9.23270173	     21.93066707	     44.99999967	      0.00000000	      0.00000000
